<svg width="32" height="32" viewBox="0 0 32 32" fill="none" xmlns="http://www.w3.org/2000/svg">
<path fill-rule="evenodd" clip-rule="evenodd" d="M16 7.75C13.6528 7.75 11.75 9.65279 11.75 12C11.75 14.3472 13.6528 16.25 16 16.25C18.3472 16.25 20.25 14.3472 20.25 12C20.25 9.65279 18.3472 7.75 16 7.75ZM19.1279 16.8256C20.7061 15.8005 21.75 14.0222 21.75 12C21.75 8.82436 19.1756 6.25 16 6.25C12.8244 6.25 10.25 8.82436 10.25 12C10.25 14.0222 11.2939 15.8005 12.8721 16.8256C9.58443 18.0844 7.25 21.2696 7.25 25H8.75C8.75 20.9959 11.9959 17.75 16 17.75C20.0041 17.75 23.25 20.9959 23.25 25H24.75C24.75 21.2696 22.4156 18.0844 19.1279 16.8256Z" fill="#ffffff"/>
</svg>
