<?xml version="1.0"?>
<svg xmlns="http://www.w3.org/2000/svg" viewBox="0 0 16 16">
    <path style="line-height:normal;text-indent:0;text-align:start;text-decoration-line:none;text-decoration-style:solid;text-decoration-color:#fff;text-transform:none;block-progression:tb;isolation:auto;mix-blend-mode:normal" d="M 8 2 C 6.3490681 2 5 3.3490681 5 5 C 5 6.6509319 6.3490681 8 8 8 C 8.3110593 8 8.6060493 7.9383887 8.8886719 7.8496094 C 8.8024536 7.9115163 8.7260703 7.985044 8.6445312 8.0527344 C 8.4319618 8.0253712 8.218794 8 8 8 C 5.2447116 8 3 10.244712 3 13 L 4 13 C 4 10.871564 5.6537427 9.1570897 7.7480469 9.0253906 C 7.2772142 9.7364034 7 10.586128 7 11.5 C 7 13.979359 9.0206409 16 11.5 16 C 13.979359 16 16 13.979359 16 11.5 C 16 9.0206409 13.979359 7 11.5 7 C 10.930331 7 10.389009 7.116146 9.8867188 7.3105469 C 10.559581 6.7593785 11 5.9331202 11 5 C 11 3.3490681 9.6509319 2 8 2 z M 8 3 C 9.1104918 3 10 3.8895082 10 5 C 10 6.1104918 9.1104918 7 8 7 C 6.8895082 7 6 6.1104918 6 5 C 6 3.8895082 6.8895082 3 8 3 z M 11.5 8 C 13.438919 8 15 9.5610811 15 11.5 C 15 13.438919 13.438919 15 11.5 15 C 9.5610811 15 8 13.438919 8 11.5 C 8 9.5610811 9.5610811 8 11.5 8 z M 9 11 L 9 12 L 14 12 L 14 11 L 9 11 z" font-weight="400" font-family="sans-serif" white-space="normal" overflow="visible"/>
</svg>
