<?xml version="1.0"?>
<svg xmlns="http://www.w3.org/2000/svg" viewBox="0 0 16 16">
    <path style="line-height:normal;text-indent:0;text-align:start;text-decoration-line:none;text-decoration-style:solid;text-decoration-color:#fff;text-transform:none;block-progression:tb;isolation:auto;mix-blend-mode:normal" d="M 8 2 C 6.3490681 2 5 3.3490681 5 5 C 5 6.6509319 6.3490681 8 8 8 C 9.6509319 8 11 6.6509319 11 5 C 11 3.3490681 9.6509319 2 8 2 z M 8 8 C 5.243 8 3 10.243 3 13 L 4 13 C 4 10.794 5.794 9 8 9 C 8.928 9 9.7721719 9.3303281 10.451172 9.8613281 L 11.150391 9.1503906 C 10.287391 8.4433906 9.2 8 8 8 z M 8 3 C 9.1104918 3 10 3.8895082 10 5 C 10 6.1104918 9.1104918 7 8 7 C 6.8895082 7 6 6.1104918 6 5 C 6 3.8895082 6.8895082 3 8 3 z M 14.205078 8.0039062 C 13.87855 8.0059963 13.553783 8.1310493 13.310547 8.3808594 L 8.6464844 13.123047 L 7.9511719 16.048828 L 10.876953 15.353516 L 10.974609 15.255859 L 15.619141 10.689453 C 16.118761 10.202981 16.12374 9.3874144 15.630859 8.8945312 L 15.105469 8.3691406 C 14.859027 8.1226991 14.531606 8.0018122 14.205078 8.0039062 z M 14.210938 8.9960938 C 14.277619 8.9957637 14.344879 9.0226118 14.398438 9.0761719 L 14.923828 9.6015625 C 15.030945 9.7086795 15.030302 9.8690817 14.921875 9.9746094 L 14.919922 9.9746094 L 10.376953 14.443359 L 9.2988281 14.701172 L 9.5546875 13.626953 L 14.025391 9.0800781 L 14.025391 9.078125 C 14.078154 9.0239351 14.144256 8.9964238 14.210938 8.9960938 z" font-weight="400" font-family="sans-serif" white-space="normal" overflow="visible"/>
</svg>
